<svg xmlns="http://www.w3.org/2000/svg" width="980" height="360" viewBox="0 0 980 360">
<rect width="100%" height="100%" fill="#ffffff"/>
<text x="78" y="26" font-family="Arial, sans-serif" font-size="18" font-weight="700" fill="#111827">Evaluation Metrics Per Epoch</text>
<text x="78" y="45" font-family="Arial, sans-serif" font-size="12" fill="#4b5563">F1 macro is the selected best-model metric.</text>
<line x1="78" y1="298.00" x2="952" y2="298.00" stroke="#e5e7eb" stroke-width="1"/>
<text x="68" y="302.00" text-anchor="end" font-family="Arial, sans-serif" font-size="11" fill="#6b7280">0.8</text>
<line x1="78" y1="250.00" x2="952" y2="250.00" stroke="#e5e7eb" stroke-width="1"/>
<text x="68" y="254.00" text-anchor="end" font-family="Arial, sans-serif" font-size="11" fill="#6b7280">0.8</text>
<line x1="78" y1="202.00" x2="952" y2="202.00" stroke="#e5e7eb" stroke-width="1"/>
<text x="68" y="206.00" text-anchor="end" font-family="Arial, sans-serif" font-size="11" fill="#6b7280">0.9</text>
<line x1="78" y1="154.00" x2="952" y2="154.00" stroke="#e5e7eb" stroke-width="1"/>
<text x="68" y="158.00" text-anchor="end" font-family="Arial, sans-serif" font-size="11" fill="#6b7280">0.9</text>
<line x1="78" y1="106.00" x2="952" y2="106.00" stroke="#e5e7eb" stroke-width="1"/>
<text x="68" y="110.00" text-anchor="end" font-family="Arial, sans-serif" font-size="11" fill="#6b7280">0.9</text>
<line x1="78" y1="58.00" x2="952" y2="58.00" stroke="#e5e7eb" stroke-width="1"/>
<text x="68" y="62.00" text-anchor="end" font-family="Arial, sans-serif" font-size="11" fill="#6b7280">0.9</text>
<line x1="78.00" y1="58" x2="78.00" y2="298" stroke="#f3f4f6" stroke-width="1"/>
<text x="78.00" y="322" text-anchor="middle" font-family="Arial, sans-serif" font-size="11" fill="#6b7280">1.0</text>
<line x1="252.80" y1="58" x2="252.80" y2="298" stroke="#f3f4f6" stroke-width="1"/>
<text x="252.80" y="322" text-anchor="middle" font-family="Arial, sans-serif" font-size="11" fill="#6b7280">1.4</text>
<line x1="427.60" y1="58" x2="427.60" y2="298" stroke="#f3f4f6" stroke-width="1"/>
<text x="427.60" y="322" text-anchor="middle" font-family="Arial, sans-serif" font-size="11" fill="#6b7280">1.8</text>
<line x1="602.40" y1="58" x2="602.40" y2="298" stroke="#f3f4f6" stroke-width="1"/>
<text x="602.40" y="322" text-anchor="middle" font-family="Arial, sans-serif" font-size="11" fill="#6b7280">2.2</text>
<line x1="777.20" y1="58" x2="777.20" y2="298" stroke="#f3f4f6" stroke-width="1"/>
<text x="777.20" y="322" text-anchor="middle" font-family="Arial, sans-serif" font-size="11" fill="#6b7280">2.6</text>
<line x1="952.00" y1="58" x2="952.00" y2="298" stroke="#f3f4f6" stroke-width="1"/>
<text x="952.00" y="322" text-anchor="middle" font-family="Arial, sans-serif" font-size="11" fill="#6b7280">3.0</text>
<line x1="78" y1="58" x2="78" y2="298" stroke="#9ca3af" stroke-width="1.2"/>
<line x1="78" y1="298" x2="952" y2="298" stroke="#9ca3af" stroke-width="1.2"/>
<text x="515.00" y="346" text-anchor="middle" font-family="Arial, sans-serif" font-size="12" fill="#374151">Epoch</text>
<text x="18" y="178.00" text-anchor="middle" transform="rotate(-90 18 178.00)" font-family="Arial, sans-serif" font-size="12" fill="#374151">Score</text>
<line x1="702" y1="24" x2="724" y2="24" stroke="#7c3aed" stroke-width="3" stroke-linecap="round"/>
<text x="730" y="28" font-family="Arial, sans-serif" font-size="11" fill="#374151">F1 macro</text>
<line x1="702" y1="42" x2="724" y2="42" stroke="#059669" stroke-width="3" stroke-linecap="round"/>
<text x="730" y="46" font-family="Arial, sans-serif" font-size="11" fill="#374151">Accuracy</text>
<polyline points="78.00,274.77 515.00,220.21 952.00,230.01" fill="none" stroke="#7c3aed" stroke-width="2.4" stroke-linejoin="round" stroke-linecap="round"/>
<circle cx="952.00" cy="230.01" r="3.4" fill="#7c3aed"/>
<polyline points="78.00,147.73 515.00,88.47 952.00,81.23" fill="none" stroke="#059669" stroke-width="2.4" stroke-linejoin="round" stroke-linecap="round"/>
<circle cx="952.00" cy="81.23" r="3.4" fill="#059669"/>
</svg>